<?xml version="1.0" encoding="UTF-8"?>
<svg width="156px" height="151px" viewBox="0 0 156 151" version="1.1" xmlns="http://www.w3.org/2000/svg" xmlns:xlink="http://www.w3.org/1999/xlink">
    <!-- Generator: Sketch 50.2 (55047) - http://www.bohemiancoding.com/sketch -->
    <title>1 Fundamentals/Illustrations/Organisms/Experiment02</title>
    <desc>Created with Sketch.</desc>
    <defs></defs>
    <g id="2.-Fundamentals" stroke="none" stroke-width="1" fill="none" fill-rule="evenodd">
        <g id="Illustrations" transform="translate(-892.000000, -2449.000000)">
            <g id="Organisms" transform="translate(100.000000, 2369.000000)">
                <g id="1-Fundamentals/Illustrations/Organisms/Experiment02" transform="translate(792.000000, 80.000000)">
                    <g id="Fundamentals/Illustrations/Organisms/Experiment02">
                        <path d="M51.4485981,103.971963 L81.9392523,103.971963 C83.2762784,103.97691 84.5565421,104.512951 85.4982367,105.462095 C86.4399313,106.411239 86.9658683,107.695687 86.9602804,109.03271 L86.9602804,134.915888 C86.9658683,136.252911 86.4399313,137.537359 85.4982367,138.486503 C84.5565421,139.435647 83.2762784,139.971688 81.9392523,139.976636 L61.0397196,139.976636 C59.7026936,139.971688 58.4224299,139.435647 57.4807353,138.486503 C56.5390407,137.537359 56.0131037,136.252911 56.0186916,134.915888 L56.0186916,120.310748 C56.0185174,118.440592 55.6460121,116.589185 54.9228972,114.864486 L50.7827103,104.988318 C50.6850895,104.763782 50.7071092,104.505181 50.8412874,104.300383 C50.9754656,104.095584 51.2037591,103.972128 51.4485981,103.971963 Z" id="Shape" fill="#DEDEDE" fill-rule="nonzero"></path>
                        <path d="M59.8130841,118.313084 L69.4228972,118.313084 C69.5672327,118.326301 69.6777032,118.44735 69.6777032,118.59229 C69.6777032,118.737229 69.5672327,118.858278 69.4228972,118.871495 L59.8130841,118.871495 C59.6687486,118.858278 59.5582781,118.737229 59.5582781,118.59229 C59.5582781,118.44735 59.6687486,118.326301 59.8130841,118.313084 Z" id="Shape" fill="#CCCCCC" fill-rule="nonzero"></path>
                        <path d="M59.8130841,115.441589 L69.4228972,115.441589 C69.5672327,115.454806 69.6777032,115.575855 69.6777032,115.720794 C69.6777032,115.865734 69.5672327,115.986783 69.4228972,116 L59.8130841,116 C59.6687486,115.986783 59.5582781,115.865734 59.5582781,115.720794 C59.5582781,115.575855 59.6687486,115.454806 59.8130841,115.441589 Z" id="Shape" fill="#CCCCCC" fill-rule="nonzero"></path>
                        <path d="M59.8130841,112.570093 L69.4228972,112.570093 C69.5672327,112.583311 69.6777032,112.70436 69.6777032,112.849299 C69.6777032,112.994238 69.5672327,113.115287 69.4228972,113.128505 L59.8130841,113.128505 C59.6687486,113.115287 59.5582781,112.994238 59.5582781,112.849299 C59.5582781,112.70436 59.6687486,112.583311 59.8130841,112.570093 Z" id="Shape" fill="#CCCCCC" fill-rule="nonzero"></path>
                        <path d="M69.4228972,110.254673 L59.8130841,110.254673 C59.6687486,110.241456 59.5582781,110.120407 59.5582781,109.975467 C59.5582781,109.830528 59.6687486,109.709479 59.8130841,109.696262 L69.4228972,109.696262 C69.5672327,109.709479 69.6777032,109.830528 69.6777032,109.975467 C69.6777032,110.120407 69.5672327,110.241456 69.4228972,110.254673 Z" id="Shape" fill="#CCCCCC" fill-rule="nonzero"></path>
                        <path d="M154.338785,86.5233645 L109.245327,86.5233645 C105.144484,86.5233645 101.820093,89.8477548 101.820093,93.9485981 L101.820093,131.918224 C101.820093,136.019068 105.144484,139.343458 109.245327,139.343458 L140.156542,139.343458 C144.257385,139.343458 147.581776,136.019068 147.581776,131.918224 L147.581776,110.490654 C147.581873,107.745642 148.132447,105.028522 149.200935,102.5 L155.32243,88.0140187 C155.464986,87.6835231 155.431442,87.3034471 155.233203,87.0030289 C155.034965,86.7026107 154.698713,86.5222835 154.338785,86.5233645 Z" id="Shape" fill="#DEDEDE" fill-rule="nonzero"></path>
                        <path d="M141.96729,107.558411 L127.759346,107.558411 C127.532883,107.558411 127.349299,107.741995 127.349299,107.968458 C127.349299,108.19492 127.532883,108.378505 127.759346,108.378505 L141.96729,108.378505 C142.193752,108.378505 142.377336,108.19492 142.377336,107.968458 C142.377336,107.741995 142.193752,107.558411 141.96729,107.558411 Z" id="Shape" fill="#CCCCCC" fill-rule="nonzero"></path>
                        <path d="M141.96729,103.343458 L127.759346,103.343458 C127.532883,103.343458 127.349299,103.527042 127.349299,103.753505 C127.349299,103.979967 127.532883,104.163551 127.759346,104.163551 L141.96729,104.163551 C142.193752,104.163551 142.377336,103.979967 142.377336,103.753505 C142.377336,103.527042 142.193752,103.343458 141.96729,103.343458 Z" id="Shape" fill="#CCCCCC" fill-rule="nonzero"></path>
                        <path d="M141.96729,99.1285047 L127.759346,99.1285047 C127.532883,99.1285047 127.349299,99.3120888 127.349299,99.5385514 C127.349299,99.765014 127.532883,99.9485981 127.759346,99.9485981 L141.96729,99.9485981 C142.193752,99.9485981 142.377336,99.765014 142.377336,99.5385514 C142.377336,99.3120888 142.193752,99.1285047 141.96729,99.1285047 Z" id="Shape" fill="#CCCCCC" fill-rule="nonzero"></path>
                        <path d="M127.759346,95.7359813 L141.96729,95.7359813 C142.193752,95.7359813 142.377336,95.5523971 142.377336,95.3259346 C142.377336,95.099472 142.193752,94.9158879 141.96729,94.9158879 L127.759346,94.9158879 C127.532883,94.9158879 127.349299,95.099472 127.349299,95.3259346 C127.349299,95.5523971 127.532883,95.7359813 127.759346,95.7359813 Z" id="Shape" fill="#CCCCCC" fill-rule="nonzero"></path>
                        <path d="M20.4018692,101.308411 L15.6962617,89.0817757 L16.953271,88.5981308 C17.8565405,88.2510173 18.3073939,87.2373816 17.9602804,86.3341121 C17.6131668,85.4308427 16.5995311,84.9799893 15.6962617,85.3271028 L1.12383178,90.9345794 C0.539518865,91.1591225 0.119383779,91.6783361 0.0216873474,92.2966375 C-0.0760090838,92.9149388 0.163575553,93.5383933 0.650192038,93.9321515 C1.13680852,94.3259098 1.79652823,94.4301506 2.38084112,94.2056075 L3.63785047,93.7219626 L8.34345794,105.950935 C1.23875719,112.0548 -0.441216763,122.386563 4.36358886,130.426947 C9.16839448,138.467332 19.0631489,141.882222 27.8043256,138.516844 C36.5455024,135.151465 41.5955456,125.982785 39.7679105,116.796181 C37.9402755,107.609577 29.7655229,101.071912 20.4018692,101.308411 Z" id="Shape" fill="#DEDEDE" fill-rule="nonzero"></path>
                        <path d="M6.68691589,126.771028 C9.40344693,132.065571 14.8509127,135.398182 20.8016831,135.406056 C26.7524534,135.41393 32.2087195,132.095747 34.9392523,126.808411 L6.68691589,126.771028 Z" id="Shape" fill="#999999" fill-rule="nonzero"></path>
                        <path d="M6.30841121,118.320093 C7.67523364,118.455607 9.34579439,117.165888 10.046729,115.439252 C10.7476636,113.712617 10.1939252,112.203271 8.82943925,112.065421 C7.46495327,111.92757 5.79205607,113.219626 5.0911215,114.946262 C4.39018692,116.672897 4.94392523,118.182243 6.30841121,118.320093 Z" id="Shape" fill="#FFFFFF" fill-rule="nonzero"></path>
                        <polygon id="Shape" fill="#999999" fill-rule="nonzero" points="31.9906542 147.301402 31.9906542 76.7827103 22.7266355 76.7827103 22.7266355 143.135514 22.7266355 147.974299 22.7266355 150.600467 28.6892523 150.600467 31.9906542 150.600467 36.5093458 150.600467 36.5093458 147.301402"></polygon>
                        <rect id="Rectangle-path" fill="#DEDEDE" fill-rule="nonzero" x="20.5864486" y="76.7827103" width="3.30140187" height="73.8200935"></rect>
                        <rect id="Rectangle-path" fill="#DEDEDE" fill-rule="nonzero" transform="translate(22.095794, 148.949766) rotate(90.000000) translate(-22.095794, -148.949766) " x="20.4450935" y="142.639019" width="3.30140187" height="12.6214953"></rect>
                        <polygon id="Shape" fill="#999999" fill-rule="nonzero" points="117.738318 147.301402 117.738318 76.7827103 108.471963 76.7827103 108.471963 143.135514 108.471963 147.974299 108.471963 150.600467 114.436916 150.600467 117.738318 150.600467 122.257009 150.600467 122.257009 147.301402"></polygon>
                        <rect id="Rectangle-path" fill="#DEDEDE" fill-rule="nonzero" x="106.334112" y="76.7827103" width="3.30140187" height="73.8200935"></rect>
                        <rect id="Rectangle-path" fill="#DEDEDE" fill-rule="nonzero" transform="translate(107.843458, 148.949766) rotate(90.000000) translate(-107.843458, -148.949766) " x="106.192757" y="142.639019" width="3.30140187" height="12.6214953"></rect>
                        <rect id="Rectangle-path" fill="#C7C7C7" fill-rule="nonzero" x="26.8317757" y="92.8364486" width="79.2196262" height="3.60046729"></rect>
                        <rect id="Rectangle-path" fill="#C7C7C7" fill-rule="nonzero" x="26.8317757" y="125.920561" width="79.2196262" height="3.60046729"></rect>
                        <rect id="Rectangle-path" fill="#C7C7C7" fill-rule="nonzero" x="16.9299065" y="125.920561" width="3.60046729" height="3.60046729"></rect>
                        <rect id="Rectangle-path" fill="#C7C7C7" fill-rule="nonzero" x="16.9299065" y="92.8364486" width="3.60046729" height="3.60046729"></rect>
                        <rect id="Rectangle-path" fill="#C7C7C7" fill-rule="nonzero" x="112.813084" y="92.9485981" width="7.02336449" height="3.60046729"></rect>
                        <rect id="Rectangle-path" fill="#C7C7C7" fill-rule="nonzero" x="112.813084" y="125.920561" width="7.02336449" height="3.60046729"></rect>
                        <rect id="Rectangle-path" fill="#999999" fill-rule="nonzero" x="117.306075" y="92.9485981" width="2.53037383" height="3.60046729"></rect>
                        <rect id="Rectangle-path" fill="#999999" fill-rule="nonzero" x="117.306075" y="125.920561" width="2.53037383" height="3.60046729"></rect>
                        <circle id="Oval" fill="#503291" fill-rule="nonzero" cx="88.9602804" cy="49.0163551" r="2.42990654"></circle>
                        <circle id="Oval" fill="#503291" fill-rule="nonzero" cx="94.817757" cy="52.5257009" r="1.07943925"></circle>
                        <circle id="Oval" fill="#503291" fill-rule="nonzero" cx="97.4275701" cy="45.9602804" r="1.75700935"></circle>
                        <circle id="Oval" fill="#503291" fill-rule="nonzero" cx="91.8831776" cy="40.4158879" r="1.62383178"></circle>
                        <rect id="Rectangle-path" fill="#FFFFFF" fill-rule="nonzero" x="36.6261682" y="57.8761682" width="20.2126168" height="5.34579439" rx="1.75934579"></rect>
                        <path d="M38.6074766,63.2219626 L54.8598134,63.2219626 L54.8598131,125.983645 C54.8604335,128.140053 54.0039183,130.208285 52.4788881,131.732877 C50.9538579,133.257469 48.8853802,134.11339 46.728972,134.11215 C42.2410132,134.11215 38.6028037,130.47394 38.6028037,125.985981 L38.6028037,63.2219626 L38.6074766,63.2219626 Z" id="Shape" fill="#FFFFFF" fill-rule="nonzero"></path>
                        <path d="M40.6845794,93.8878505 L52.8971963,93.8878505 L52.8971963,125.871495 C52.8971963,129.243271 50.1638319,131.976636 46.7920561,131.976636 C43.4202803,131.976636 40.6869159,129.243271 40.6869159,125.871495 L40.6869159,93.8878505 L40.6845794,93.8878505 Z" id="Shape" fill="#B53079" fill-rule="nonzero"></path>
                        <rect id="Rectangle-path" fill="#FFFFFF" fill-rule="nonzero" x="60.8317757" y="57.8761682" width="20.2126168" height="5.34579439" rx="1.75934579"></rect>
                        <path d="M62.8130841,63.2219626 L79.0654209,63.2219626 L79.0654206,125.983645 C79.0660405,128.139648 78.2098461,130.207526 76.6853213,131.73205 C75.1607966,133.256575 73.0929194,134.11277 70.9369159,134.11215 C66.4489571,134.11215 62.8107477,130.47394 62.8107477,125.985981 L62.8107477,63.2219626 L62.8130841,63.2219626 Z" id="Shape" fill="#FFFFFF" fill-rule="nonzero"></path>
                        <path d="M64.8901869,72.2733645 L77.1028037,72.2733645 L77.1028037,125.871495 C77.1028037,129.243271 74.3694394,131.976636 70.9976636,131.976636 C67.6258877,131.976636 64.8925234,129.243271 64.8925234,125.871495 L64.8925234,72.2733645 L64.8901869,72.2733645 Z" id="Shape" fill="#E1AB2D" fill-rule="nonzero"></path>
                        <rect id="Rectangle-path" fill="#FFFFFF" fill-rule="nonzero" x="85.0350467" y="57.8761682" width="20.2126168" height="5.34579439" rx="1.75934579"></rect>
                        <path d="M87.0163551,63.2219626 L103.271028,63.2219626 L103.271028,125.983645 C103.271648,128.139648 102.415454,130.207526 100.890929,131.73205 C99.3664041,133.256575 97.2985268,134.11277 95.1425234,134.11215 C90.6545646,134.11215 87.0163551,130.47394 87.0163551,125.985981 L87.0163551,63.2219626 Z" id="Shape" fill="#FFFFFF" fill-rule="nonzero"></path>
                        <path d="M89.0957944,110.366822 L101.308411,110.366822 L101.308411,125.871495 C101.308411,129.243271 98.5750468,131.976636 95.203271,131.976636 C91.8314952,131.976636 89.0981308,129.243271 89.0981308,125.871495 L89.0981308,110.366822 L89.0957944,110.366822 Z" id="Shape" fill="#3B2870" fill-rule="nonzero"></path>
                        <circle id="Oval" fill="#EB3C96" fill-rule="nonzero" cx="54.1845794" cy="47.0864486" r="1.83878505"></circle>
                        <circle id="Oval" fill="#EB3C96" fill-rule="nonzero" cx="44.9135514" cy="48.6635514" r="1.13785047"></circle>
                        <circle id="Oval" fill="#EB3C96" fill-rule="nonzero" cx="43.7757009" cy="55.432243" r="1.79439252"></circle>
                        <circle id="Oval" fill="#EB3C96" fill-rule="nonzero" cx="47.9018692" cy="61.7429907" r="2.71962617"></circle>
                        <circle id="Oval" fill="#EB3C96" fill-rule="nonzero" cx="49.2943925" cy="53.1448598" r="2.28738318"></circle>
                        <path d="M46.8014019,93.8878505 L46.8014019,131.971963 C50.1731777,131.971963 52.9065421,129.238598 52.9065421,125.866822 L52.9065421,93.8878505 L46.8014019,93.8878505 Z" id="Shape" fill="#EB3C96" fill-rule="nonzero"></path>
                        <path d="M95.2850467,110.366822 L95.2850467,131.976647 C96.9062537,131.979738 98.4621229,131.337889 99.6095867,130.192617 C100.75705,129.047345 101.401872,127.492705 101.401869,125.871495 L101.401869,110.366822 L95.2850467,110.366822 Z" id="Shape" fill="#503291" fill-rule="nonzero"></path>
                        <path d="M71.0420561,72.2733645 L71.0420561,131.976636 C74.4138319,131.976636 77.1471963,129.243271 77.1471963,125.871495 L77.1471963,72.2733645 L71.0420561,72.2733645 Z" id="Shape" fill="#FFC832" fill-rule="nonzero"></path>
                        <rect id="Rectangle-path" fill="#FFFFFF" fill-rule="nonzero" transform="translate(77.466419, 14.766364) rotate(96.620000) translate(-77.466419, -14.766364) " x="63.3402512" y="9.98014897" width="28.2523364" height="9.57242991" rx="4.78621495"></rect>
                        <path d="M46.8626349,51.3673574 L98.1219807,51.3673574 C98.8897597,51.3673574 99.5121676,51.9897653 99.5121676,52.7575444 C99.5121676,53.5253234 98.8897597,54.1477313 98.1219807,54.1477313 L46.8626349,54.1477313 C46.715531,54.1477313 46.5962797,54.02848 46.5962797,53.8813761 L46.5962797,51.6407219 C46.5943883,51.5688737 46.6216134,51.4993104 46.6717712,51.4478327 C46.7219289,51.396355 46.7907617,51.3673326 46.8626349,51.3673574 Z" id="Shape" fill="#FFFFFF" fill-rule="nonzero" transform="translate(73.054177, 52.757544) rotate(96.620000) translate(-73.054177, -52.757544) "></path>
                        <path d="M81.6588785,6.27803738 L79.4182243,24.228972 C79.2084279,25.9955096 77.6111226,27.2608259 75.8434579,27.0607477 C74.0769204,26.8509512 72.811604,25.253646 73.0116822,23.4859813 L75.2523364,5.53504673" id="Shape" fill="#FFC832" fill-rule="nonzero"></path>
                        <path d="M69.9953271,79.0327103 C69.6742365,78.9949034 69.4443121,78.7043626 69.4813084,78.3831776 L76.7429907,16.2336449 L77.911215,16.3691589 L70.6495327,78.5186916 C70.6314158,78.6738167 70.5521705,78.8153075 70.4293637,78.9117985 C70.306557,79.0082896 70.1503344,79.0518093 69.9953271,79.0327103 Z" id="Shape" fill="#FFC832" fill-rule="nonzero"></path>
                        <path d="M77.2126168,35.5420561 C78.0957944,38.0163551 80.0817757,39.2172897 80.4556075,40.8364486 C80.5443925,41.2242991 80.3808411,42.2383178 79.4228972,42.1892523" id="Shape" fill="#646B49" fill-rule="nonzero"></path>
                        <path d="M79.478972,42.771028 C80.0864486,42.771028 80.5841121,42.1425234 80.7850467,41.885514 C81.1518692,41.4182243 81.0841121,41.1004673 80.9929907,40.7009346 C80.7850467,39.7920561 80.1752336,39.0373832 79.5327103,38.2383178 C78.8901869,37.4392523 78.1588785,36.5327103 77.7313084,35.3364486 L76.6962617,35.7476636 C77.1915888,37.1308411 77.9859813,38.1191589 78.6892523,38.9906542 C79.271028,39.7102804 79.771028,40.3341121 79.9182243,40.9766355 C79.9385597,41.1549875 79.8946551,41.3347477 79.7943925,41.4836449 C79.7093627,41.5867779 79.5757381,41.6366645 79.4439252,41.614486 L79.4018692,42.7827103 L79.478972,42.771028 Z" id="Shape" fill="#D5DDE8" fill-rule="nonzero"></path>
                        <path d="M80.6401869,45.203271 C80.6401869,45.203271 81.7453271,46.6051402 80.7313084,52.7593458 C80.7313084,52.7593458 81.3808411,55.3294393 80.6799065,57.3411215 L79.8668224,57.4556075 L79.3785047,48.3271028 C79.3785047,48.3271028 77.9766355,52.5771028 77.9766355,53.1705607 C77.9205607,54.6775701 77.7897196,55.3481308 77.2242991,57.3761682 L76.3037383,57.3761682 C76.3037383,57.3761682 76.8130841,52.7313084 76.9252336,51.2616822 C77.0373832,49.7920561 76.8574766,45.8878505 77.2990654,45.4742991 C77.7406542,45.0607477 80.6401869,45.203271 80.6401869,45.203271 Z" id="Shape" fill="#EBEBEB" fill-rule="nonzero"></path>
                        <path d="M81.0537383,55.3948598 C81.0537383,55.3948598 80.8200935,57.7056075 80.7172897,57.9649533 C80.7172897,57.9649533 78.7102804,58.0093458 78.6985981,57.9649533 C78.6869159,57.9205607 78.4929907,57.5233645 78.8808411,57.5700935 C78.8808411,57.5700935 79.8738318,57.5233645 79.8294393,56.817757 C79.7733645,55.9182243 79.7383178,55.588785 79.7383178,55.1962617 L81.0537383,55.3948598 Z" id="Shape" fill="#172B4D" fill-rule="nonzero"></path>
                        <path d="M73.3995327,39.771028 C73.0701028,39.5137251 72.757906,39.2350896 72.4649533,38.9369159 C72.3621495,38.8107477 72.4275701,38.6285047 72.4859813,38.4696262 C72.5443925,38.3107477 72.953271,37.9415888 72.9696262,38.114486 C72.9901587,38.3764 73.1241664,38.6162482 73.3364486,38.771028 C73.3364486,38.771028 73.4742991,38.1308411 73.5864486,38.6728972 C73.6705607,39.0817757 73.7476636,39.3971963 73.7476636,39.3971963 C73.7476636,39.3971963 73.6845794,39.9906542 73.3995327,39.771028 Z" id="Shape" fill="#FFFFFF" fill-rule="nonzero"></path>
                        <path d="M77.8037383,55.1168224 C77.8037383,55.1168224 77.2546729,57.703271 77.1495327,57.9696262 C77.1495327,57.9696262 75.2359813,58.0140187 75.2266355,57.9696262 C75.2172897,57.9252336 75.021028,57.5280374 75.4088785,57.5747664 C75.4088785,57.5747664 76.3247664,57.5186916 76.3598131,56.8107477 C76.4018692,55.9485981 76.5070093,55.4859813 76.5070093,55.0934579 L77.8037383,55.1168224 Z" id="Shape" fill="#172B4D" fill-rule="nonzero"></path>
                        <path d="M73.1004673,39.8457944 L73.8808411,39.0257009 C74.9205607,40.0654206 75.7383178,40.2336449 77.1331776,39.911215 C77.3130841,39.8691589 77.4392523,39.8598131 77.6238318,39.8224299 L77.6962617,39.8084112 C78.2593458,39.7056075 79.0023364,38.8738318 79.0023364,38.8738318 L79.9158879,39.8504673 C80.1635514,39.8948598 80.6168224,40.4906542 80.7219626,41.1331776 C80.7219626,41.1331776 80.453271,44.9415888 80.6378505,45.2126168 C80.8224299,45.4836449 78.796729,45.9462617 77.2850467,45.4836449 C77.4299065,45.3528037 77.9509346,44.1658879 77.4275701,43.5817757 C77.4275701,43.5817757 75.9766355,42.9883178 76.8668224,41.9205607 C76.8668224,41.9205607 76.885514,41.8154206 76.9158879,41.6542056 C76.8434579,41.4205607 76.7313084,41.2219626 76.5116822,41.1869159 C76.453271,41.1869159 76.4415888,41.161215 76.4392523,41.1401869 C76.3269953,41.1576374 76.2139193,41.1693349 76.1004673,41.1752336 C74.3411215,41.1728972 74.1892523,40.5841121 73.1004673,39.8457944 Z" id="Shape" fill="#D5DDE8" fill-rule="nonzero"></path>
                        <path d="M78.9158879,38.25 C78.8097209,38.3789098 78.6844367,38.4907989 78.5443925,38.5817757 C78.1792258,38.8183504 77.7325456,38.8935521 77.3100465,38.7895863 C76.8875474,38.6856206 76.5267707,38.4117253 76.3130841,38.0327103 C75.9744283,37.4557473 75.9897936,36.7371925 76.3528037,36.1752336 C76.6034297,35.6931614 76.9956073,35.299353 77.4766355,35.046729 C78.1775701,34.7079439 79.1705607,35.1962617 79.3457944,35.3200935 C79.6238318,35.521028 79.682243,36.1588785 79.8130841,36.3831776 C79.9439252,36.6074766 80.1238318,36.8668224 79.9696262,37.5654206 C79.8668224,38.0327103 79.720405,38.2663551 79.5303738,38.2663551 L78.9158879,38.25 Z" id="Shape" fill="#535353"></path>
                        <path d="M76.5514019,37.5537383 C76.691316,37.6495974 76.8510372,37.7126873 77.0186916,37.7383178 C77.3687765,37.6660771 77.713143,37.5684675 78.0490654,37.4462617 C78.2172897,37.6799065 78.364486,37.9135514 78.364486,37.9135514 C78.5023364,37.9135514 78.5700935,37.8971963 78.5537383,37.8130841 L78.3341121,37.3457944 L78.4158879,37.2920561 L78.546729,37.1728972 C78.7803738,37.0186916 78.9649533,37.1378505 79.088785,37.3504673 C79.2126168,37.5630841 79.1892523,37.728972 79.0747664,37.817757 L79.3084112,38.6915888 C79.3831776,39.0373832 79.220405,39.3169782 78.8200935,39.5303738 C78.2196262,39.8504673 77.8224299,39.6051402 77.6261682,39.3901869 C77.2280451,38.802258 76.8690151,38.1887849 76.5514019,37.5537383 Z" id="Shape" fill="#FFFFFF"></path>
                        <path d="M79.9065421,37.7196262 C79.9065421,37.7196262 79.6285047,38.4742991 79.9065421,38.9906542 C79.9065421,38.9906542 78.7850467,38.796729 79.0560748,37.8014019" id="Shape" fill="#535353" fill-rule="nonzero"></path>
                    </g>
                </g>
            </g>
        </g>
    </g>
</svg>